<?xml version="1.0" standalone="no"?><!DOCTYPE svg PUBLIC "-//W3C//DTD SVG 1.1//EN" ><svg  class="icon" viewBox="0 0 1024 1024" version="1.1" xmlns="http://www.w3.org/2000/svg"  xmlns:xlink="http://www.w3.org/1999/xlink" width="200" height="200"><path d="M699.82 282.84c168.68 21.24 229.65 129.34 229.65 263.93 0 265.77-248.46 323.07-376.08 323.07-127.61 0-374.47-31.2-374.47-306.13 0-152.48 103.45-276.09 231.06-276.09 13.21 0 26.16 1.33 38.76 3.87l251.08-8.65z" fill="#7ED024"></path><path d="M668.56 265.45c-4.2-1.84-8.59-3.59-13.19-5.19-3.91-1.43-8.31-2.91-12.72-4.12-8.55-2.44-16.8-4.11-23.96-5.23h-0.02c0.83-1.02 1.47-2.03 2.36-3.04 2.89-3.28 6.15-6.48 9.7-9.55 2.91-2.54 8.56-6.57 11.74-8.57 16-10.52 36.89-15.83 52.7-16.78 15.95-1.15 26.89 0.8 26.89 0.8s-9.76-5.07-26.24-8.88c-16.39-3.84-39.85-5.63-63.79 1.11-6.88 2.01-10.71 3.25-17.09 5.9-5.57 2.42-10.96 5.18-16 8.23-10.09 6.08-18.79 13.19-25.64 19.93-6.86 6.75-11.99 13.07-15.38 17.68-1.34 1.91-2.29 3.27-3.12 4.45-0.6-0.03-1.08-0.07-1.72-0.09-5.27-0.17-12.42 0.09-20.26 0.73-6.25-2.28-13.43-4.7-22.28-7.01-12.39-3.28-27.07-5.99-42.8-7.25-7.86-0.71-16-0.88-24.2-0.78-8.34 0.14-16.2 0.77-24.99 1.71-15.26 1.94-32.57 5.79-46.49 10.59-14.4 4.82-27.2 10.63-37.66 16.37-20.96 11.47-32.89 21.66-32.89 21.66s13.9-7.53 36.02-14.18c11.03-3.35 24.12-6.23 38.17-7.85 14.51-1.66 28.18-1.91 44.03-0.68 6.77 0.74 14.46 1.68 21.38 3.06 7.05 1.41 13.89 3 20.36 5 0.57 0.17 1.05 0.39 1.61 0.56-8 4.53-15.77 9.61-22.8 15.72-2.77 2.38-6.63 5.57-8.95 8.15-2.54 2.54-5.15 5.23-7.87 8.47-5.48 6.1-9.68 12.19-13.65 18.43-7.83 12.39-12.98 24.91-16.3 35.77-6.66 21.81-6.61 36.74-6.61 36.74s3.32-14.69 14.05-33.53c5.33-9.37 12.56-19.63 21.81-28.88 4.56-4.55 9.71-9.27 14.91-12.91 2.4-1.88 5.38-3.86 8.56-5.88 3.2-2.24 5.45-3.13 8.72-4.94 19.73-10.53 41.05-13.96 58.66-13.89 1.28 0.81 2.87 1.76 3.94 2.48l8.02 5.6 0.39 0.28c1.44 0.99 3 1.85 4.68 2.56 9.37 3.96 19.61 1.79 26.88-4.36 2.16 0.2 4.32 0.32 6.39-0.01 0.78 1.12 1.2 2.39 2.17 3.41 0.43 0.54 5.73 3.14 13.62 10.14 7.68 6.78 17.01 17.78 23.23 31.29 1.78 4.16 2.96 6.59 4.21 10.43 1.25 3.54 2.21 7.13 3.04 10.68 1.64 7.1 2.39 14.05 2.62 20.09 0.46 12.11-1.02 20.43-1.02 20.43s4.53-7 9.03-19.11c2.23-6.05 4.41-13.39 5.79-21.61 0.68-4.1 1.26-8.43 1.51-12.88 0.34-3.7 0.25-8.59 0.18-12.29l-0.03-1.31c-0.6-18.56-6.19-37.28-12.51-50.56-1.04-2.24-2.08-4.14-3.12-6.09 2.01-0.55 4.17-1.13 6.65-1.7 5.63-1.29 12.33-2.52 19.68-3.27 3.55-0.41 7.32-0.62 11.69-0.74 3.67-0.16 7.63-0.17 11.73-0.03 16.19 0.53 32.71 3.86 44.91 7.63 12.22 3.73 20.17 7.37 20.17 7.37s-24.32-25.57-58.9-40.26z" fill="#8EC72E" ></path><path d="M263.31 468.87c-0.83 0-1.67-0.05-2.52-0.17-10.29-1.37-17.51-10.83-16.13-21.12 1.55-11.62 3.54-22.94 6.04-33.87 2.31-10.11 12.41-16.49 22.5-14.13 10.12 2.31 16.44 12.38 14.13 22.5-2.24 9.85-4.02 20.02-5.43 30.49-1.25 9.45-9.31 16.3-18.59 16.3zM293.89 372.41c-3.32 0-6.68-0.87-9.71-2.72-8.88-5.37-11.72-16.93-6.35-25.8 25.7-42.48 65.31-70.7 121.09-86.28 9.95-2.88 20.36 3.03 23.15 13.04 2.8 10-3.05 20.36-13.04 23.15-46.13 12.89-78.53 35.64-99.04 69.55a18.833 18.833 0 0 1-16.1 9.06z" fill="#231F20" ></path><path d="M504.85 873.84c-253.6 0-393.26-115.39-393.26-324.93 0-162.59 112.09-294.88 249.85-294.88 14.21 0 28.5 1.42 42.48 4.23 10.17 2.04 16.76 11.95 14.72 22.13-2.04 10.17-11.92 16.65-22.13 14.72a178.49 178.49 0 0 0-35.07-3.5c-117.04 0-212.27 115.43-212.27 257.29 0 237.5 193.41 287.34 355.68 287.34 36.57 0 357.29-8.54 357.29-304.28 0-144.94-71.74-227.47-213.21-245.28-10.3-1.3-17.59-10.69-16.3-21 1.3-10.29 10.82-17.47 21-16.3 161 20.27 246.1 117.98 246.1 282.57-0.01 269.89-248.22 341.89-394.88 341.89z" fill="#231F20"></path><path d="M563.27 417.98c-1.53 0-3.07-0.28-4.57-0.87-5.56-2.16-8.8-7.95-7.78-13.83 0.01-0.07 1.24-7.35 0.84-17.78-0.25-6.16-1.02-12.15-2.31-17.75-0.72-3.07-1.55-6.23-2.66-9.32-0.92-2.81-1.71-4.61-2.72-6.91l-1.2-2.76c-6.41-13.94-16.11-23.41-19.98-26.82-5.02-4.44-8.81-6.84-10.64-8-0.38-0.25-0.89-0.6-1.44-1.01-10.28 5.77-22.56 6.63-33.56 1.99a39.293 39.293 0 0 1-6.96-3.83l-8.43-5.88s-0.12-0.08-0.29-0.19c-13.18 0.32-31.43 2.88-49.24 12.37l-3 1.59c-1.46 0.76-2.79 1.42-4.45 2.58-3.25 2.08-5.87 3.81-7.98 5.46-4.42 3.12-8.87 6.99-13.8 11.92-7.4 7.41-14.24 16.48-19.77 26.22-9.55 16.79-12.71 30.01-12.74 30.14-1.44 6.19-7.45 10.31-13.62 9.63-6.31-0.72-11.1-6.03-11.12-12.4 0-0.68 0.03-17.07 7.16-40.42 4.26-13.9 10.2-26.95 17.69-38.81 3.82-5.98 8.54-13.02 14.93-20.11 2.71-3.22 5.54-6.15 8.3-8.92 1.87-2.1 5.46-5.21 8.45-7.77 0.61-0.54 1.24-1.06 1.85-1.59-4.84-0.76-9.85-1.35-14.4-1.85-14.47-1.1-27.33-0.89-41.23 0.67-12.21 1.41-24.64 3.96-35.96 7.39-20.47 6.16-33.57 13.15-33.71 13.22-5.63 3.06-12.66 1.32-16.27-3.95-3.62-5.29-2.68-12.44 2.19-16.6 0.53-0.44 13.17-11.17 35.02-23.11 12.2-6.69 25.94-12.67 39.7-17.26 14.28-4.93 32.13-9 48.88-11.15 9.42-1.01 17.65-1.66 26.36-1.81 8.73-0.12 17.26 0.07 25.54 0.83 15.12 1.21 30.69 3.85 44.9 7.62 8.06 2.11 14.83 4.3 20.78 6.42 5.07-0.37 9.8-0.56 13.9-0.6 3.74-5.02 8.99-11.44 16.08-18.4 8.44-8.28 18.11-15.8 27.96-21.73 5.49-3.3 11.38-6.34 17.46-8.98 7.07-2.92 11.18-4.26 18.57-6.43 29.94-8.42 56.82-4.39 70.18-1.27 17.79 4.11 28.7 9.73 29.16 9.97 5.48 2.85 8.04 9.26 6.07 15.11-1.98 5.85-8.08 9.35-14.02 8.34-0.11-0.03-9.79-1.63-23.81-0.66-13 0.8-31.98 5.07-46.71 14.76-1.41 0.89-3.23 2.12-5.03 3.4 0.57 0.16 1.16 0.33 1.75 0.5 4.63 1.26 9.36 2.84 13.58 4.38 4.72 1.66 9.38 3.52 13.84 5.47 36.51 15.52 61.96 41.94 63.02 43.06 4.15 4.34 4.61 11.02 1.14 15.9-3.49 4.91-9.96 6.67-15.42 4.14-0.33-0.15-7.6-3.43-18.62-6.79-13.14-4.06-28.31-6.63-41.66-7.08-3.78-0.11-7.38-0.1-10.77 0.02-4.15 0.12-7.57 0.3-10.77 0.67-3.49 0.36-6.77 0.81-9.83 1.33 6.02 15.11 9.69 32 10.18 47.44 0.11 5.59 0.18 11.05-0.2 15.17-0.26 4.45-0.88 9.22-1.63 13.74-1.37 8.14-3.52 16.16-6.41 23.95-4.85 13.02-9.71 20.71-10.25 21.54a12.57 12.57 0 0 1-10.52 5.7z m-36.65-124.6c3.06 1.97 7.43 4.95 12.87 9.79 10.68 9.41 20.27 22.34 26.29 35.43l1.26 2.9c0.09 0.18 0.16 0.37 0.25 0.55-0.01-0.78-0.04-1.53-0.05-2.24-0.49-15.82-4.72-32.86-11.32-46.73-0.86-1.84-1.66-3.34-2.47-4.85-1.79-3.35-2.15-7.73-0.65-11.23 1.52-3.5 4.33-6.5 8.01-7.5 2.15-0.59 4.47-1.2 7.12-1.82 6.08-1.38 13.31-2.7 21.24-3.51 3.67-0.43 7.81-0.67 12.6-0.81 3.79-0.17 8.05-0.18 12.53-0.01 1.26 0.04 2.54 0.1 3.83 0.17-1-0.45-2.01-0.89-3.02-1.32-0.05-0.03-0.09-0.04-0.12-0.06a183.79 183.79 0 0 0-12.32-4.86c-3.76-1.37-7.81-2.73-11.88-3.84-8.15-2.34-15.88-3.89-22.59-4.94a12.55 12.55 0 0 1-9.73-7.83c-1.61-4.16-0.9-8.86 1.87-12.35 1.27-1.72 1.95-2.62 2.74-3.52 3.26-3.7 6.91-7.29 10.92-10.75 3.23-2.84 9.64-7.43 13.27-9.7 1.07-0.7 2.15-1.38 3.27-2.04-1.21 0.29-2.43 0.61-3.66 0.95-6.23 1.82-9.77 2.96-15.69 5.41-4.84 2.12-9.75 4.61-14.31 7.38-8.22 4.94-16.29 11.22-23.33 18.14-6.6 6.48-11.28 12.36-14.06 16.14l-3 4.28c-2.46 3.48-6.49 5.61-10.74 5.27-6.52-0.2-13.17 0.03-20.46 0.62-1.81 0.09-3.61-0.11-5.31-0.72-5.92-2.17-12.74-4.47-21.14-6.66-12.83-3.41-26.87-5.79-40.65-6.89-7.56-0.7-15.26-0.85-23.05-0.74-7.92 0.12-15.41 0.74-23.8 1.64-1.45 0.18-2.91 0.39-4.39 0.61 1.71 0.1 3.44 0.22 5.2 0.36 7.51 0.82 15.59 1.82 22.86 3.25 7.51 1.52 14.76 3.22 21.62 5.32 4.77 1.48 9.03 5.94 9.57 10.92 0.54 4.97-1.13 10.07-5.48 12.53-8.33 4.72-15.12 9.38-20.74 14.28-1.33 1.14-2.54 2.15-3.62 3.08 0.49-0.26 0.98-0.5 1.47-0.76l2.53-1.35c24.19-12.9 49-15.33 64.77-15.45 2.36 0.01 4.68 0.68 6.67 1.94l12.43 8.39c1.07 0.75 1.88 1.19 2.77 1.57 4.56 1.9 9.87 1 13.9-2.39 2.56-2.18 5.85-3.28 9.21-2.91 0.73 0.06 2.43 0.22 3.3 0.1 4.78-0.82 9.47 1.25 12.22 5.16 0.17 0.24 0.61 0.96 0.99 1.6zM589.5 866.36c-8.53 0-16.25-5.84-18.28-14.5-2.37-10.1 3.89-20.21 14-22.59 49.3-11.59 117.09-55.4 145.94-140.77 0.6-1.77 1.15-3.57 1.68-5.39 2.84-9.98 13.29-15.78 23.22-12.92 9.98 2.84 15.77 13.24 12.92 23.22-0.67 2.39-1.42 4.77-2.22 7.12-33.78 99.97-114.28 151.53-172.96 165.32-1.44 0.35-2.88 0.51-4.3 0.51zM756.9 634.63c-9.92 0-18.22-7.77-18.76-17.79-0.31-5.75-0.72-11.11-1.13-15.89-0.87-10.34 6.82-19.43 17.17-20.3 10.34-0.57 19.43 6.82 20.3 17.15 0.43 5.14 0.87 10.86 1.2 17.03 0.55 10.36-7.4 19.22-17.77 19.77-0.34 0.02-0.68 0.03-1.01 0.03z" fill="#231F20" ></path><path d="M503.1 277.8c-0.25 0-0.48 0-0.72-0.01-10.38-0.39-18.46-9.11-18.07-19.49 0.79-20.98-1.84-53.08-18.88-86.87-16.59-32.89-41.54-35.62-67.8-35.62-10.38 0-18.79-8.42-18.79-18.79s8.42-18.79 18.79-18.79c23.69 0 72.98 0 101.36 56.28 20.65 40.94 23.85 79.81 22.88 105.21-0.38 10.13-8.73 18.08-18.77 18.08z" fill="#231F20" ></path></svg>
